<?xml version="1.0" encoding="utf-8"?>
<!-- Svg Vector Icons : http://www.onlinewebfonts.com/icon -->
<!DOCTYPE svg PUBLIC "-//W3C//DTD SVG 1.1//EN" "http://www.w3.org/Graphics/SVG/1.1/DTD/svg11.dtd">
<svg version="1.1" xmlns="http://www.w3.org/2000/svg" xmlns:xlink="http://www.w3.org/1999/xlink" x="0px" y="0px" viewBox="0 0 1000 1000" enable-background="new 0 0 1000 1000" xml:space="preserve">
<metadata> Svg Vector Icons : http://www.onlinewebfonts.com/icon </metadata>
<g><path d="M969.7,290.2l0.2,0.1L766.7,439.9l-0.1-0.1c-10.8,8-24.9,12.9-40.6,12.9c-33.7,0-60.9-22.3-60.9-49.8c0-14.7,7.9-27.8,20.3-36.9l-0.2-0.1l85.1-62.6H401l0,0H279.1l0,0H136.9h-66c-33.7,0-60.9-22.3-60.9-49.8c0-27.5,27.3-49.8,60.9-49.8h158.8v0h-11.6v0h264v0h288.1l-85.1-62.6l0.1-0.1c-12.4-9.1-20.3-22.2-20.3-36.9C665,76.3,692.3,54,726,54c15.7,0,29.8,5,40.6,12.9l0.1-0.1l203.1,149.5l-0.1,0.1c12.4,9.1,20.3,22.2,20.3,36.9C990,268,982.1,281.1,969.7,290.2L969.7,290.2z"/><path d="M10,754.2c0-14.2,7.9-26.7,20.3-35.5l-0.1-0.1l203.1-143.9l0.2,0.1c10.8-7.7,24.9-12.4,40.6-12.4c33.6,0,60.9,21.5,60.9,48c0,14.2-7.9,26.7-20.3,35.5l0.1,0.1l-85.1,60.3h288.1v0h264v0h-11.6v0h158.8c33.7,0,60.9,21.5,60.9,48c0,26.5-27.3,48-60.9,48h-66H720.9l0,0H599l0,0H229.7l85.1,60.3l-0.1,0.1c12.4,8.8,20.3,21.4,20.3,35.5c0,26.5-27.3,48-60.9,48c-15.7,0-29.8-4.8-40.6-12.4l-0.1,0.1L30.2,789.8l0.2-0.1C17.9,780.9,10,768.3,10,754.2L10,754.2z"/></g>
</svg>